<?xml version="1.0" encoding="UTF-8"?>
<svg version="1.1" xmlns="http://www.w3.org/2000/svg" width="364" height="379">
<path d="M0 0 C0.91007813 0.70769531 1.82015625 1.41539063 2.7578125 2.14453125 C13.01886357 10.25690069 22.36129628 19.35153272 30 30 C30.82177734 31.09634766 30.82177734 31.09634766 31.66015625 32.21484375 C56.59931406 66.35706208 66.1720059 109.38390198 60 151 C52.39035099 193.79641448 28.66901267 231.38099097 -7.00390625 256.33984375 C-24.7730859 268.36624968 -44.87300075 277.008208 -66 281 C-66.91209229 281.17515137 -67.82418457 281.35030273 -68.76391602 281.53076172 C-77.82870595 283.10779742 -86.76734423 283.40067594 -95.9375 283.375 C-96.70523743 283.37412384 -97.47297485 283.37324768 -98.26397705 283.37234497 C-124.91225347 283.27240788 -149.66142817 277.00214141 -173 264 C-173.63631348 263.65211426 -174.27262695 263.30422852 -174.92822266 262.94580078 C-183.97853335 257.95591209 -191.86875991 252.20835235 -199.54492188 245.29931641 C-200.8795623 244.1075452 -202.24321753 242.94847619 -203.609375 241.79296875 C-215.46641129 231.61630862 -224.90748458 219.30133034 -233 206 C-233.35545898 205.41702148 -233.71091797 204.83404297 -234.07714844 204.23339844 C-254.12438285 170.67075153 -260.0699564 127.92057989 -251 90 C-243.67997373 61.11006338 -230.44096311 36.68424173 -210 15 C-209.35160156 14.28714844 -208.70320313 13.57429688 -208.03515625 12.83984375 C-196.67020674 0.82048256 -182.74565486 -8.64117604 -168 -16 C-167.30326172 -16.34901367 -166.60652344 -16.69802734 -165.88867188 -17.05761719 C-150.60745514 -24.57353748 -133.9743068 -30.08635194 -117 -32 C-116.06800781 -32.10957031 -115.13601562 -32.21914063 -114.17578125 -32.33203125 C-73.8344205 -36.37155335 -31.70758002 -25.73433902 0 0 Z M-31.36352539 55.26586914 C-31.93578857 55.84973389 -32.50805176 56.43359863 -33.09765625 57.03515625 C-33.73509766 57.68033203 -34.37253906 58.32550781 -35.02929688 58.99023438 C-36.35768452 60.3441434 -37.68582051 61.69829939 -39.01367188 63.05273438 C-42.23703851 66.31466571 -45.48724774 69.47364876 -48.96484375 72.46484375 C-53.3692604 76.25901314 -57.42857917 80.35441849 -61.5 84.5 C-69.39492542 92.53873098 -69.39492542 92.53873098 -73.625 96.125 C-80.28191938 101.85243801 -86.32741634 108.26236025 -92.5 114.5 C-107.28102504 129.43681 -107.28102504 129.43681 -113.38085938 134.60791016 C-115.88592073 136.76168878 -118.18024375 139.08552492 -120.5 141.4375 C-121.3559375 142.30246094 -122.211875 143.16742188 -123.09375 144.05859375 C-123.7228125 144.69925781 -124.351875 145.33992188 -125 146 C-128.09179136 144.6238464 -130.19638753 143.04841555 -132.57519531 140.65185547 C-133.25559875 139.97130096 -133.9360022 139.29074646 -134.63702393 138.58956909 C-135.36008728 137.85618317 -136.08315063 137.12279724 -136.828125 136.3671875 C-137.95163361 135.23943405 -137.95163361 135.23943405 -139.09783936 134.08889771 C-141.4866302 131.68892099 -143.86836897 129.28207991 -146.25 126.875 C-147.86933169 125.24563648 -149.48911802 123.61672466 -151.109375 121.98828125 C-155.07820505 117.99741194 -159.04126899 114.00088585 -163 110 C-164.2869285 110.93719917 -165.57005239 111.87962409 -166.8515625 112.82421875 C-167.92398193 113.61058716 -167.92398193 113.61058716 -169.01806641 114.4128418 C-171.41930314 116.33578341 -173.17111189 118.53803524 -175 121 C-175.99 121.495 -175.99 121.495 -177 122 C-177 122.66 -177 123.32 -177 124 C-177.58265625 124.24492187 -178.1653125 124.48984375 -178.765625 124.7421875 C-181.36302236 126.20435874 -182.83975831 127.84740414 -184.75 130.125 C-185.67039062 131.21167969 -185.67039062 131.21167969 -186.609375 132.3203125 C-187.06828125 132.87460938 -187.5271875 133.42890625 -188 134 C-184.17599988 138.56964892 -180.22181138 142.92089744 -175.99462891 147.11889648 C-175.42804565 147.68562576 -174.8614624 148.25235504 -174.27770996 148.83625793 C-172.42969132 150.68358747 -170.57817097 152.52736301 -168.7265625 154.37109375 C-167.43454448 155.66124403 -166.14274904 156.95161724 -164.85116577 158.24220276 C-161.47012957 161.61944189 -158.08609986 164.99366562 -154.70141602 168.36724854 C-151.24052041 171.81786929 -147.78249457 175.27136338 -144.32421875 178.72460938 C-137.55226856 185.48587186 -130.77714917 192.24394899 -124 199 C-117.5632053 193.69550603 -111.71320616 187.84774226 -105.83227539 181.94580078 C-104.71817155 180.83141445 -103.60384663 179.71724909 -102.48931885 178.60328674 C-99.48138832 175.59564178 -96.47653948 172.58493528 -93.47225499 169.57364893 C-90.32570532 166.42082547 -87.17630186 163.27085528 -84.02720642 160.12057495 C-78.07200572 154.16227276 -72.11935758 148.20142724 -66.16763347 142.23965251 C-59.38844721 135.4492683 -52.60640319 128.66174138 -45.8241235 121.87444711 C-31.87957796 107.91946397 -17.93860599 93.96091556 -4 80 C-4.94894909 78.88549718 -5.89895965 77.7718981 -6.84941101 76.65867615 C-7.37833293 76.03844291 -7.90725485 75.41820967 -8.4522047 74.77918148 C-10.45067491 72.48195187 -12.55587541 70.31451219 -14.70703125 68.16015625 C-15.95709961 66.9081543 -15.95709961 66.9081543 -17.23242188 65.63085938 C-18.08384766 64.78330078 -18.93527344 63.93574219 -19.8125 63.0625 C-21.11864258 61.75055664 -21.11864258 61.75055664 -22.45117188 60.41210938 C-23.69157227 59.17364258 -23.69157227 59.17364258 -24.95703125 57.91015625 C-25.70960205 57.15871338 -26.46217285 56.40727051 -27.23754883 55.63305664 C-29.330576 53.51711784 -29.330576 53.51711784 -31.36352539 55.26586914 Z " fill="#9960A9" transform="translate(277,67)"/>
<path d="M0 0 C0.99 0.495 0.99 0.495 2 1 C0.50918859 5.50612488 -1.99936557 8.90699099 -4.9375 12.5625 C-5.42694092 13.17528809 -5.91638184 13.78807617 -6.4206543 14.41943359 C-23.15872548 35.15909649 -42.67007928 50.97408087 -67 62 C-67.61311035 62.27827637 -68.2262207 62.55655273 -68.85791016 62.84326172 C-76.28187384 66.14745399 -83.78990743 68.65057392 -91.625 70.75 C-92.36403564 70.94875732 -93.10307129 71.14751465 -93.86450195 71.35229492 C-106.15895407 74.48259687 -118.30433386 75.3996698 -130.9375 75.375 C-131.69825836 75.3764502 -132.45901672 75.37790039 -133.24282837 75.37939453 C-146.16955371 75.37668179 -158.41068183 74.07525329 -171 71 C-170.67 70.01 -170.34 69.02 -170 68 C-169.04738281 68.144375 -168.09476563 68.28875 -167.11328125 68.4375 C-165.23189453 68.7159375 -165.23189453 68.7159375 -163.3125 69 C-161.45044922 69.2784375 -161.45044922 69.2784375 -159.55078125 69.5625 C-156.64113629 69.92100411 -153.92299978 70.08942256 -151 70 C-151 70.66 -151 71.32 -151 72 C-149.7625 71.814375 -148.525 71.62875 -147.25 71.4375 C-145.02284755 71.10342713 -143.37790812 70.9030796 -141.1875 71.46484375 C-128.9427333 74.46043846 -110.90368684 72.36896797 -99 69 C-96 68.875 -96 68.875 -94 69 C-94 68.34 -94 67.68 -94 67 C-93.236875 67.0825 -92.47375 67.165 -91.6875 67.25 C-90.800625 67.1675 -89.91375 67.085 -89 67 C-88.5875 66.34 -88.175 65.68 -87.75 65 C-86 63 -86 63 -83.81640625 62.734375 C-81.53293403 62.74862444 -79.27676042 62.82816902 -77 63 C-77 62.67 -77 62.34 -77 62 C-76.21625 61.87625 -75.4325 61.7525 -74.625 61.625 C-71.85942178 61.20882007 -71.85942178 61.20882007 -70 59 C-68.68 59 -67.36 59 -66 59 C-65.34 57.35 -64.68 55.7 -64 54 C-63.113125 54.061875 -62.22625 54.12375 -61.3125 54.1875 C-57.60632091 53.97771628 -55.91488305 53.24862406 -53 51 C-52.67 50.01 -52.34 49.02 -52 48 C-49.3139714 46.20931427 -47.3373411 45.33944209 -44.3125 44.375 C-43.10013672 43.98441406 -43.10013672 43.98441406 -41.86328125 43.5859375 C-41.24839844 43.39257812 -40.63351562 43.19921875 -40 43 C-40 41.02 -40 39.04 -40 37 C-36.94152152 36.45627049 -34.11227195 36 -31 36 C-31 35.34 -31 34.68 -31 34 C-30.34 34 -29.68 34 -29 34 C-28.938125 33.38125 -28.87625 32.7625 -28.8125 32.125 C-28.544375 31.42375 -28.27625 30.7225 -28 30 C-26.34795544 29.29788106 -24.68076231 28.63028587 -23 28 C-22.67 27.01 -22.34 26.02 -22 25 C-21.01 25 -20.02 25 -19 25 C-18.67 23.68 -18.34 22.36 -18 21 C-17.34 21 -16.68 21 -16 21 C-15.67 19.35 -15.34 17.7 -15 16 C-14.01 16 -13.02 16 -12 16 C-12 15.01 -12 14.02 -12 13 C-10.68 13 -9.36 13 -8 13 C-8.04125 11.88625 -8.0825 10.7725 -8.125 9.625 C-8 6 -8 6 -6 4 C-5.67 4.66 -5.34 5.32 -5 6 C-4.67 5.01 -4.34 4.02 -4 3 C-1.9375 1.3125 -1.9375 1.3125 0 0 Z " fill="#DA6799" transform="translate(312,275)"/>
<path d="M0 0 C1.32 0.33 2.64 0.66 4 1 C4 1.66 4 2.32 4 3 C5.32 3.33 6.64 3.66 8 4 C8.66 6.64 9.32 9.28 10 12 C11.98 12 13.96 12 16 12 C15.01 13.485 15.01 13.485 14 15 C16.30993633 18.18426102 16.30993633 18.18426102 19 21 C21.71305777 21.50379029 21.71305777 21.50379029 24 21 C25 26.75 25 26.75 25 29 C25.61875 29.309375 26.2375 29.61875 26.875 29.9375 C28.25 30.625 29.625 31.3125 31 32 C31.33 31.34 31.66 30.68 32 30 C32.66 31.98 33.32 33.96 34 36 C35.65 36.33 37.3 36.66 39 37 C38.67 37.99 38.34 38.98 38 40 C38.99 39.67 39.98 39.34 41 39 C41.33 39.99 41.66 40.98 42 42 C43.83021609 43.16154965 43.83021609 43.16154965 46 44.0625 C49.8978186 45.7956372 49.8978186 45.7956372 51 48 C52.94168103 49.12954935 54.9287976 50.18195457 56.9375 51.1875 C58.01902344 51.73792969 59.10054687 52.28835938 60.21484375 52.85546875 C61.13394531 53.23316406 62.05304688 53.61085938 63 54 C63.66 53.67 64.32 53.34 65 53 C65 53.66 65 54.32 65 55 C65.53625 55.268125 66.0725 55.53625 66.625 55.8125 C68.26700504 56.63350252 69.89142755 57.49028515 71.5 58.375 C76.51597464 60.70384537 81.73640537 62.32212275 87 64 C87 64.99 87 65.98 87 67 C80.83836773 65.83316732 75.2739223 64.14557801 69.5625 61.5625 C68.79462158 61.21614502 68.02674316 60.86979004 67.2355957 60.51293945 C53.01940872 53.91034574 40.59176366 45.49078203 29 35 C28.14277344 34.27425781 27.28554687 33.54851562 26.40234375 32.80078125 C16.37132255 24.20049208 6.7073967 13.43091551 0 2 C0 1.34 0 0.68 0 0 Z " fill="#D27BA7" transform="translate(47,276)"/>
<path d="M0 0 C2.31 0.33 4.62 0.66 7 1 C-1.15411796 6.43607864 -11.21840069 9.2510156 -20.625 11.75 C-21.73198242 12.04741089 -21.73198242 12.04741089 -22.86132812 12.35083008 C-35.15576745 15.48473304 -47.30373249 16.39967098 -59.9375 16.375 C-60.69825836 16.3764502 -61.45901672 16.37790039 -62.24282837 16.37939453 C-75.16955371 16.37668179 -87.41068183 15.07525329 -100 12 C-99.67 11.01 -99.34 10.02 -99 9 C-98.04738281 9.144375 -97.09476563 9.28875 -96.11328125 9.4375 C-94.85902344 9.623125 -93.60476562 9.80875 -92.3125 10 C-91.07113281 10.185625 -89.82976562 10.37125 -88.55078125 10.5625 C-85.64113629 10.92100411 -82.92299978 11.08942256 -80 11 C-80 11.66 -80 12.32 -80 13 C-78.7625 12.814375 -77.525 12.62875 -76.25 12.4375 C-74.02284755 12.10342713 -72.37790812 11.9030796 -70.1875 12.46484375 C-57.9427333 15.46043846 -39.90368684 13.36896797 -28 10 C-25 9.875 -25 9.875 -23 10 C-23 9.34 -23 8.68 -23 8 C-22.236875 8.0825 -21.47375 8.165 -20.6875 8.25 C-19.800625 8.1675 -18.91375 8.085 -18 8 C-17.5875 7.34 -17.175 6.68 -16.75 6 C-15 4 -15 4 -12.81640625 3.734375 C-10.53293403 3.74862444 -8.27676042 3.82816902 -6 4 C-6 3.67 -6 3.34 -6 3 C-5.195625 2.87625 -4.39125 2.7525 -3.5625 2.625 C-2.716875 2.41875 -1.87125 2.2125 -1 2 C-0.67 1.34 -0.34 0.68 0 0 Z " fill="#DA6796" transform="translate(241,334)"/>
<path d="M0 0 C0.625 1.875 0.625 1.875 1 4 C-1 6 -1 6 -4 7 C-3.67 8.98 -3.34 10.96 -3 13 C-3.598125 13.061875 -4.19625 13.12375 -4.8125 13.1875 C-7.92266847 14.34270543 -8.60417708 16.06877187 -10 19 C-10 19.99 -10 20.98 -10 22 C-10.97850195 23.02104551 -11.97980427 24.0206121 -13 25 C-13.33 25.99 -13.66 26.98 -14 28 C-15.2065625 28.680625 -15.2065625 28.680625 -16.4375 29.375 C-19.5670487 31.35959186 -19.71273125 32.60317677 -21 36 C-22.46105051 38.54095741 -24.00916243 41.01465988 -25.5625 43.5 C-26.96757058 45.94360101 -28.01983131 48.36108429 -29 51 C-29.99 51 -30.98 51 -32 51 C-26.61373986 31.81144825 -13.75478368 14.13686101 0 0 Z " fill="#6F68AA" transform="translate(66,83)"/>
<path d="M0 0 C2.6875 0.3125 2.6875 0.3125 5 1 C3.47611588 2.67627253 2.25588352 3.88223855 0.18359375 4.8359375 C-2.54464503 6.29034744 -4.47183888 8.09659713 -6.6875 10.25 C-7.86892578 11.37148437 -7.86892578 11.37148437 -9.07421875 12.515625 C-11.30420287 15.39244021 -11.69431887 17.41472301 -12 21 C-13.65 21 -15.3 21 -17 21 C-17.23074219 21.63808594 -17.46148437 22.27617187 -17.69921875 22.93359375 C-18.67386462 25.40295346 -19.64941568 27.7127201 -21 30 C-23.5625 30.75 -23.5625 30.75 -26 31 C-27.03013277 32.64821244 -28.03114628 34.31503702 -29 36 C-30.9375 36.75 -30.9375 36.75 -33 37 C-34.33574821 37.32352067 -35.66949064 37.65556751 -37 38 C-31.55752212 31.54159292 -31.55752212 31.54159292 -28.8125 28.875 C-26.92727197 27.09754729 -26.92727197 27.09754729 -25.87890625 24.890625 C-23.15071843 20.69341296 -19.67345255 17.3850909 -16.125 13.875 C-15.41730469 13.15957031 -14.70960938 12.44414062 -13.98046875 11.70703125 C-10.51852511 8.25798126 -7.34253175 5.32577543 -3 3 C-2.505 2.4225 -2.01 1.845 -1.5 1.25 C-1.005 0.8375 -0.51 0.425 0 0 Z " fill="#8B6FA8" transform="translate(275,146)"/>
<path d="M0 0 C0 3.57996647 -0.92545363 4.23393817 -3 7 C-3 7.99 -3 8.98 -3 10 C-5.29779183 12.48927448 -7.71912323 14.75033176 -10.25 17 C-12.28921301 19.33052916 -12.66222069 20.95998621 -13 24 C-15.875 24.125 -15.875 24.125 -19 24 C-19.66 23.34 -20.32 22.68 -21 22 C-20.67 21.34 -20.34 20.68 -20 20 C-21.134375 19.62875 -22.26875 19.2575 -23.4375 18.875 C-25.3828125 18.0625 -25.3828125 18.0625 -27 17 C-27.8125 13.875 -27.8125 13.875 -28 11 C-28.66 10.67 -29.32 10.34 -30 10 C-29.34 9.01 -28.68 8.02 -28 7 C-24.7 10.3 -21.4 13.6 -18 17 C-11.58930713 11.72898586 -5.81409488 5.90871848 0 0 Z " fill="#B55A95" transform="translate(171,248)"/>
<path d="M0 0 C-4.08411407 4.87458776 -7.96685253 6.29354406 -14 8 C-17.55630412 9.13155131 -18.90222468 9.89983992 -21.5625 12.625 C-24 15 -24 15 -28 15 C-29.77409808 16.92022703 -29.77409808 16.92022703 -31 19 C-31 18.01 -31 17.02 -31 16 C-32.98 16.66 -34.96 17.32 -37 18 C-33.19942736 13.83257672 -29.31709982 11.1775337 -24.375 8.5 C-23.67076904 8.11344238 -22.96653809 7.72688477 -22.2409668 7.32861328 C-5.77177957 -1.61978894 -5.77177957 -1.61978894 0 0 Z " fill="#6770B1" transform="translate(125,47)"/>
<path d="M0 0 C5.25174926 4.38442526 10.13222473 9.00842093 14.9375 13.875 C15.62134766 14.56335938 16.30519531 15.25171875 17.00976562 15.9609375 C18.67551464 17.63833511 20.3388622 19.31803791 22 21 C20.68 21.33 19.36 21.66 18 22 C17.7525 21.38125 17.505 20.7625 17.25 20.125 C15.7557016 17.58469272 14.75218149 16.97135817 12 16 C10.68 16 9.36 16 8 16 C7.34 15.34 6.68 14.68 6 14 C5.01 14.33 4.02 14.66 3 15 C3 14.34 3 13.68 3 13 C2.34 12.67 1.68 12.34 1 12 C0.71073053 9.97511372 0.42727846 7.94755984 0.24609375 5.91015625 C0.09593122 3.91747967 0.09593122 3.91747967 -1 2 C-0.67 1.34 -0.34 0.68 0 0 Z " fill="#AE659D" transform="translate(120,233)"/>
<path d="M0 0 C0.95261719 0.144375 1.90523437 0.28875 2.88671875 0.4375 C4.14097656 0.623125 5.39523438 0.80875 6.6875 1 C7.92886719 1.185625 9.17023438 1.37125 10.44921875 1.5625 C13.35886371 1.92100411 16.07700022 2.08942256 19 2 C19 2.66 19 3.32 19 4 C20.2375 3.79375 21.475 3.5875 22.75 3.375 C26.55944416 2.74009264 26.55944416 2.74009264 28.671875 3.98632812 C31.96704353 5.42105335 34.80685437 5.22375512 38.390625 5.1953125 C39.09523865 5.1924826 39.79985229 5.18965271 40.52581787 5.18673706 C42.7673876 5.17557801 45.00855186 5.15048193 47.25 5.125 C48.77343171 5.11496464 50.29686971 5.10583976 51.8203125 5.09765625 C55.54700586 5.07565291 59.27346333 5.04115272 63 5 C63 5.33 63 5.66 63 6 C55.16238583 7.25601576 47.35849854 7.2834264 39.4375 7.3125 C38.66175629 7.31644775 37.88601257 7.32039551 37.08676147 7.32446289 C24.0309855 7.35548264 11.71802202 6.1066924 -1 3 C-0.67 2.01 -0.34 1.02 0 0 Z " fill="#E282AA" transform="translate(142,343)"/>
<path d="M0 0 C2.97 0.495 2.97 0.495 6 1 C1.03805145 6.99500997 -4.3476624 12.46427037 -9.875 17.9375 C-10.75414062 18.81212891 -11.63328125 19.68675781 -12.5390625 20.58789062 C-14.6904346 22.72757048 -16.84411792 24.86486597 -19 27 C-19.97591583 23.61682513 -19.85856655 21.4342662 -19 18 C-17.88625 17.731875 -16.7725 17.46375 -15.625 17.1875 C-11.78159049 16.34190981 -11.78159049 16.34190981 -10 13 C-9.34 13 -8.68 13 -8 13 C-8 12.34 -8 11.68 -8 11 C-7.34 11 -6.68 11 -6 11 C-6 10.34 -6 9.68 -6 9 C-5.34 9 -4.68 9 -4 9 C-4 8.34 -4 7.68 -4 7 C-3.34 7 -2.68 7 -2 7 C-0.49069817 3.6136749 -0.49069817 3.6136749 0 0 Z " fill="#A481B2" transform="translate(189,170)"/>
<path d="M0 0 C6.05626575 0.39700457 9.55401052 2.2198863 14.375 5.8125 C15.00277344 6.25142578 15.63054687 6.69035156 16.27734375 7.14257812 C19.5828294 9.54494512 21.30301627 10.96316872 22 15 C21.01 14.67 20.02 14.34 19 14 C18.67 14.66 18.34 15.32 18 16 C17.9175 15.38125 17.835 14.7625 17.75 14.125 C17.18741541 11.81562433 17.18741541 11.81562433 14.9375 10.75 C14.298125 10.5025 13.65875 10.255 13 10 C13 9.34 13 8.68 13 8 C8.85906302 7.79029441 8.85906302 7.79029441 5 9 C4.01 8.34 3.02 7.68 2 7 C1.01 7.495 1.01 7.495 0 8 C0.2784375 7.13375 0.2784375 7.13375 0.5625 6.25 C1.04023546 3.79307475 0.75729364 2.35602466 0 0 Z " fill="#7078B1" transform="translate(256,56)"/>
<path d="M0 0 C0.69867188 0.37253906 1.39734375 0.74507813 2.1171875 1.12890625 C3.02726562 1.60199219 3.93734375 2.07507813 4.875 2.5625 C5.77992187 3.03816406 6.68484375 3.51382812 7.6171875 4.00390625 C8.40351562 4.33261719 9.18984375 4.66132813 10 5 C10.66 4.67 11.32 4.34 12 4 C12 4.66 12 5.32 12 6 C12.53625 6.268125 13.0725 6.53625 13.625 6.8125 C15.26700504 7.63350252 16.89142755 8.49028515 18.5 9.375 C23.51597464 11.70384537 28.73640537 13.32212275 34 15 C34 15.99 34 16.98 34 18 C27.45356786 16.74157231 21.79100479 14.85262509 15.75 12.0625 C14.58597656 11.54139648 14.58597656 11.54139648 13.3984375 11.00976562 C2.53021723 6.08568289 2.53021723 6.08568289 0.6875 2.3125 C0.460625 1.549375 0.23375 0.78625 0 0 Z " fill="#DB76A2" transform="translate(100,325)"/>
<path d="M0 0 C0.66 0.33 1.32 0.66 2 1 C0.44589271 5.8278481 -2.31260334 9.28850899 -5.4375 13.1875 C-6.17323242 14.13012695 -6.17323242 14.13012695 -6.92382812 15.09179688 C-9.19973888 17.96356011 -10.90371331 19.93580887 -14 22 C-14.33 20.35 -14.66 18.7 -15 17 C-14.01 16.67 -13.02 16.34 -12 16 C-12 15.01 -12 14.02 -12 13 C-10.68 13 -9.36 13 -8 13 C-8.04125 11.88625 -8.0825 10.7725 -8.125 9.625 C-8 6 -8 6 -6 4 C-5.67 4.66 -5.34 5.32 -5 6 C-4.67 5.01 -4.34 4.02 -4 3 C-1.9375 1.3125 -1.9375 1.3125 0 0 Z " fill="#C46097" transform="translate(312,275)"/>
<path d="M0 0 C0 3 0 3 -1.96875 5.15625 C-3.65625 6.71875 -5.34375 8.28125 -7.03125 9.84375 C-9.33713468 11.88260489 -9.33713468 11.88260489 -9 15 C-9.3062434 16.33981486 -9.63451555 17.67511887 -10 19 C-10.78375 19.0825 -11.5675 19.165 -12.375 19.25 C-13.24125 19.4975 -14.1075 19.745 -15 20 C-15.433125 20.99 -15.433125 20.99 -15.875 22 C-16.24625 22.66 -16.6175 23.32 -17 24 C-20.625 24.75 -20.625 24.75 -24 25 C-19.18132753 19.19108254 -13.98743592 13.86934448 -8.625 8.5625 C-7.79355469 7.73556641 -6.96210938 6.90863281 -6.10546875 6.05664062 C-4.0725896 4.03544469 -2.03740037 2.01663665 0 0 Z " fill="#A788B6" transform="translate(248,171)"/>
<path d="M0 0 C0.33 0.66 0.66 1.32 1 2 C-0.12851471 4.77650444 -1.31796911 7.43380291 -2.625 10.125 C-3.17607422 11.27826782 -3.17607422 11.27826782 -3.73828125 12.45483398 C-6.19404274 17.52630459 -8.82492672 22.33661112 -12 27 C-12.84062397 23.90226756 -13.08935201 21.21667249 -13 18 C-13.66 18 -14.32 18 -15 18 C-14.505 16.515 -14.505 16.515 -14 15 C-12.68 15 -11.36 15 -10 15 C-6.42210652 11.53391569 -4.75029608 7.43462327 -2.9296875 2.890625 C-2 1 -2 1 0 0 Z " fill="#B85C99" transform="translate(327,249)"/>
<path d="M0 0 C1.32 0 2.64 0 4 0 C2.97500703 7.19122051 -5.09562343 12.4525803 -10.5625 16.5625 C-11.7028151 17.38272665 -12.84645302 18.19848915 -14 19 C-13.67 17.02 -13.34 15.04 -13 13 C-12.34 13 -11.68 13 -11 13 C-10.9071875 12.071875 -10.9071875 12.071875 -10.8125 11.125 C-10.544375 10.42375 -10.27625 9.7225 -10 9 C-8.34795544 8.29788106 -6.68076231 7.63028587 -5 7 C-4.67 6.01 -4.34 5.02 -4 4 C-3.01 4 -2.02 4 -1 4 C-0.67 2.68 -0.34 1.36 0 0 Z " fill="#CE6C9E" transform="translate(294,296)"/>
<path d="M0 0 C3.40427658 1.24546704 4.67434085 2.88739676 6.5625 5.9375 C6.2325 6.9275 5.9025 7.9175 5.5625 8.9375 C2.0975 5.9675 2.0975 5.9675 -1.4375 2.9375 C-6.0575 7.5575 -10.6775 12.1775 -15.4375 16.9375 C-15.7675 15.6175 -16.0975 14.2975 -16.4375 12.9375 C-15.4475 12.6075 -14.4575 12.2775 -13.4375 11.9375 C-12.98375 11.009375 -12.53 10.08125 -12.0625 9.125 C-9.83711131 4.75981449 -5.21343023 -0.1336777 0 0 Z " fill="#A096C6" transform="translate(248.4375,119.0625)"/>
<path d="M0 0 C1.57619796 3.15239592 0.68832865 5.61571748 0 9 C-1.25 11.4375 -1.25 11.4375 -3 14 C-3.8814637 15.37086533 -4.75602119 16.7461868 -5.625 18.125 C-6.05039062 18.78757812 -6.47578125 19.45015625 -6.9140625 20.1328125 C-8.1511279 22.11406897 -8.1511279 22.11406897 -9 25 C-9.99 25 -10.98 25 -12 25 C-9.79979234 17.16176022 -5.90022929 5.90022929 0 0 Z " fill="#8D86B5" transform="translate(46,109)"/>
<path d="M0 0 C-3 1.5 -3 1.5 -6 3 C-6 2.34 -6 1.68 -6 1 C-9.94759438 1.38421096 -13.89446433 1.77514129 -17.84082031 2.171875 C-19.83104138 2.37061047 -21.82176732 2.56426905 -23.8125 2.7578125 C-30.9740105 3.4811974 -37.98114455 4.38758821 -45 6 C-45 5.01 -45 4.02 -45 3 C-29.9902849 -0.29625116 -15.31881369 -0.33257278 0 0 Z " fill="#53609F" transform="translate(189,36)"/>
<path d="M0 0 C0.33 0 0.66 0 1 0 C0.95577075 11.91978302 -2.49268942 22.71289506 -6 34 C-6.66 34 -7.32 34 -8 34 C-8.32899918 27.83431173 -8.34890563 23.40977064 -5 18 C-2.90740433 14.4196996 -2.19899026 10.79504311 -1.375 6.75 C-0.98441406 4.85507813 -0.98441406 4.85507813 -0.5859375 2.921875 C-0.39257812 1.95765625 -0.19921875 0.9934375 0 0 Z " fill="#B376AB" transform="translate(336,211)"/>
<path d="M0 0 C8.51304348 6.95869565 8.51304348 6.95869565 11 11 C10.75 13.8125 10.75 13.8125 10 16 C8.68 15.67 7.36 15.34 6 15 C6 13.68 6 12.36 6 11 C4.68 11.33 3.36 11.66 2 12 C0.40861915 7.82262526 -0.21278058 4.46839215 0 0 Z " fill="#A368A3" transform="translate(95,208)"/>
<path d="M0 0 C0 3.57996647 -0.92545363 4.23393817 -3 7 C-3 7.99 -3 8.98 -3 10 C-6.21450363 13.85740435 -8.18301015 15.0886776 -13 16 C-14.36020151 17.96758273 -14.36020151 17.96758273 -15 20 C-16.32 19.67 -17.64 19.34 -19 19 C-17.65594427 16.31188853 -15.52477392 14.89717503 -13.25390625 12.99609375 C-8.62080527 8.89294886 -4.3390407 4.409658 0 0 Z " fill="#C17EAC" transform="translate(171,248)"/>
<path d="M0 0 C1.32 0.33 2.64 0.66 4 1 C4 2.32 4 3.64 4 5 C2.865625 5.433125 1.73125 5.86625 0.5625 6.3125 C-0.613125 6.869375 -1.78875 7.42625 -3 8 C-3.33 8.99 -3.66 9.98 -4 11 C-6.875 12.75 -6.875 12.75 -10 14 C-10.99 13.67 -11.98 13.34 -13 13 C-9.64608275 8.79319658 -6.7566243 5.64256905 -2 3 C-1.34 2.01 -0.68 1.02 0 0 Z " fill="#9A5793" transform="translate(203,218)"/>
<path d="M0 0 C5.53557645 0.33891284 10.59977533 1.6380554 15.875 3.3125 C16.54152588 3.51319092 17.20805176 3.71388184 17.89477539 3.9206543 C20.87760682 4.90476371 22.67001792 5.50502688 24.4453125 8.16796875 C24.62835938 8.77253906 24.81140625 9.37710938 25 10 C22.69 10 20.38 10 18 10 C18 9.34 18 8.68 18 8 C16.68 8 15.36 8 14 8 C14 6.68 14 5.36 14 4 C13.24074219 3.96261719 12.48148438 3.92523438 11.69921875 3.88671875 C10.70535156 3.82097656 9.71148437 3.75523438 8.6875 3.6875 C7.70136719 3.62949219 6.71523437 3.57148437 5.69921875 3.51171875 C2.75615543 2.95377187 1.81817001 2.31459868 0 0 Z " fill="#6771AD" transform="translate(213,38)"/>
<path d="M0 0 C1.32 0.33 2.64 0.66 4 1 C4 1.66 4 2.32 4 3 C5.32 3.33 6.64 3.66 8 4 C8.66 6.64 9.32 9.28 10 12 C11.98 12 13.96 12 16 12 C15.01 13.32 14.02 14.64 13 16 C8.8410831 14.47379196 6.75850553 11.46451578 4.25 8 C3.63318359 7.18015625 3.63318359 7.18015625 3.00390625 6.34375 C0 2.27200997 0 2.27200997 0 0 Z " fill="#C875A2" transform="translate(47,276)"/>
<path d="M0 0 C0.625 1.875 0.625 1.875 1 4 C-1 6 -1 6 -4 7 C-3.67 8.98 -3.34 10.96 -3 13 C-3.598125 13.103125 -4.19625 13.20625 -4.8125 13.3125 C-7.08110966 13.84018987 -7.08110966 13.84018987 -8.5625 15.5625 C-9.036875 16.036875 -9.51125 16.51125 -10 17 C-10.99 17 -11.98 17 -13 17 C-11.46203092 13.56546802 -9.4264398 10.85610724 -7.0625 7.9375 C-6.37285156 7.08027344 -5.68320312 6.22304687 -4.97265625 5.33984375 C-3.38385308 3.45530297 -1.77941245 1.70131911 0 0 Z " fill="#8C8CBE" transform="translate(66,83)"/>
<path d="M0 0 C0 3 0 3 -1 5 C-0.34 5.33 0.32 5.66 1 6 C0.54625 6.433125 0.0925 6.86625 -0.375 7.3125 C-2.20024334 9.10798342 -2.20024334 9.10798342 -4 12 C-5.32 11.67 -6.64 11.34 -8 11 C-8 11.99 -8 12.98 -8 14 C-10.49064888 14.68707555 -12.37886292 15 -15 15 C-10.05 10.05 -5.1 5.1 0 0 Z " fill="#B389B4" transform="translate(211,208)"/>
<path d="M0 0 C0 0.99 0 1.98 0 3 C-1.33333333 4.33333333 -2.66666667 5.66666667 -4 7 C-4 7.99 -4 8.98 -4 10 C-5.4609375 11.60546875 -5.4609375 11.60546875 -7.375 13.1875 C-8.00148437 13.71730469 -8.62796875 14.24710938 -9.2734375 14.79296875 C-11 16 -11 16 -13 16 C-14.34882408 16.63474075 -15.6846659 17.29848848 -17 18 C-11.72898586 11.58930713 -5.90871848 5.81409488 0 0 Z " fill="#BF90B8" transform="translate(195,224)"/>
<path d="M0 0 C16.10679612 -0.26213592 16.10679612 -0.26213592 21 3 C22.88154883 3.44111565 24.78062638 3.8109267 26.6875 4.125 C27.68136719 4.29257812 28.67523438 4.46015625 29.69921875 4.6328125 C30.45847656 4.75398438 31.21773437 4.87515625 32 5 C32 5.66 32 6.32 32 7 C31.01 7.33 30.02 7.66 29 8 C29 7.34 29 6.68 29 6 C27.2675 6.0928125 27.2675 6.0928125 25.5 6.1875 C21.53029066 6.20145328 18.70048219 5.2538771 15.08203125 3.7265625 C12.1138235 2.69075267 9.20158704 2.49397909 6.078125 2.30859375 C3.73329217 1.96039489 2.05686136 1.15351009 0 0 Z " fill="#4A579D" transform="translate(195,37)"/>
<path d="M0 0 C0.33 0.99 0.66 1.98 1 3 C-0.1875 5.1875 -0.1875 5.1875 -2 7 C-3.32 7 -4.64 7 -6 7 C-7.77409808 8.92022703 -7.77409808 8.92022703 -9 11 C-9 10.01 -9 9.02 -9 8 C-10.98 8.66 -12.96 9.32 -15 10 C-11.33829025 5.99500496 -5.76187936 0 0 0 Z " fill="#8187BB" transform="translate(103,55)"/>
<path d="M0 0 C1.32 0.66 2.64 1.32 4 2 C0.04 5.96 -3.92 9.92 -8 14 C-9.32 13.34 -10.64 12.68 -12 12 C-11.443125 11.608125 -10.88625 11.21625 -10.3125 10.8125 C-7.84937133 8.96406897 -7.84937133 8.96406897 -5.375 6.3125 C-3 4 -3 4 -1 4 C-0.67 2.68 -0.34 1.36 0 0 Z " fill="#A379A9" transform="translate(160,200)"/>
<path d="M0 0 C-0.33 1.65 -0.66 3.3 -1 5 C-3.475 4.505 -3.475 4.505 -6 4 C-6 4.66 -6 5.32 -6 6 C-6.99 6.33 -7.98 6.66 -9 7 C-9.33 6.34 -9.66 5.68 -10 5 C-9.34 5 -8.68 5 -8 5 C-8 4.34 -8 3.68 -8 3 C-8.763125 3.33 -9.52625 3.66 -10.3125 4 C-13 5 -13 5 -16 5 C-16.33 5.66 -16.66 6.32 -17 7 C-17.66 6.34 -18.32 5.68 -19 5 C-16.58570231 4.15919981 -14.16896007 3.32718598 -11.75 2.5 C-10.72712891 2.14228516 -10.72712891 2.14228516 -9.68359375 1.77734375 C-6.23586997 0.60578713 -3.68297096 0 0 0 Z " fill="#8591C0" transform="translate(144,39)"/>
<path d="M0 0 C0.66 0.33 1.32 0.66 2 1 C0.7260411 3.03833424 -0.61061923 5.03852126 -2 7 C-2.66 7 -3.32 7 -4 7 C-4.165 7.61875 -4.33 8.2375 -4.5 8.875 C-6.90181375 12.27756949 -10.00162134 12.22612026 -14 13 C-11.24160796 9.31999566 -8.37924618 6.50494111 -4.75 3.6875 C-3.41195312 2.64142578 -3.41195312 2.64142578 -2.046875 1.57421875 C-1.37140625 1.05472656 -0.6959375 0.53523438 0 0 Z " fill="#888CBA" transform="translate(86,65)"/>
<path d="M0 0 C0.99 0.33 1.98 0.66 3 1 C3 1.66 3 2.32 3 3 C3.66 3 4.32 3 5 3 C5 3.66 5 4.32 5 5 C5.66 5 6.32 5 7 5 C7 5.66 7 6.32 7 7 C7.639375 7.226875 8.27875 7.45375 8.9375 7.6875 C11 9 11 9 11.75 11.625 C11.87375 12.800625 11.87375 12.800625 12 14 C3.31427689 6.71600742 3.31427689 6.71600742 0 3 C0 2.01 0 1.02 0 0 Z " fill="#A47BAE" transform="translate(136,197)"/>
<path d="M0 0 C0.33 0 0.66 0 1 0 C1.1875 2.3125 1.1875 2.3125 1 5 C-0.4375 6.625 -0.4375 6.625 -2 8 C-2.33 8.99 -2.66 9.98 -3 11 C-4.8125 11.625 -4.8125 11.625 -7 12 C-8.33489745 12.32701327 -9.66849245 12.65944671 -11 13 C-10.62488281 12.56429687 -10.24976563 12.12859375 -9.86328125 11.6796875 C-9.35152344 11.08414063 -8.83976563 10.48859375 -8.3125 9.875 C-7.76851562 9.24207031 -7.22453125 8.60914063 -6.6640625 7.95703125 C-5.14955629 6.17588663 -3.66581794 4.37365561 -2.1875 2.5625 C-1.465625 1.716875 -0.74375 0.87125 0 0 Z " fill="#7D5996" transform="translate(249,171)"/>
<path d="M0 0 C0.99 0.33 1.98 0.66 3 1 C3 2.32 3 3.64 3 5 C3.99 5.33 4.98 5.66 6 6 C5.67 6.99 5.34 7.98 5 9 C5.99 9.33 6.98 9.66 8 10 C9.125 15.75 9.125 15.75 8 18 C6.66180502 15.3773768 5.3292849 12.75213401 4 10.125 C3.6184375 9.37863281 3.236875 8.63226563 2.84375 7.86328125 C2.4828125 7.14785156 2.121875 6.43242187 1.75 5.6953125 C1.41484375 5.03547363 1.0796875 4.37563477 0.734375 3.69580078 C0 2 0 2 0 0 Z " fill="#CA8EB6" transform="translate(34,251)"/>
<path d="M0 0 C0.33 0.99 0.66 1.98 1 3 C2.32 2.34 3.64 1.68 5 1 C5 1.66 5 2.32 5 3 C2.53243466 5.32656161 0.8039716 6.84312749 -2.5625 7.5 C-5.71716676 8.14711113 -6.92358496 9.61596791 -9 12 C-9.66 11.67 -10.32 11.34 -11 11 C-7.37 7.37 -3.74 3.74 0 0 Z " fill="#B38DBA" transform="translate(223,196)"/>
<path d="M0 0 C0.33 0.66 0.66 1.32 1 2 C0.37915039 3.78759766 0.37915039 3.78759766 -0.65234375 5.9140625 C-1.01650391 6.67460937 -1.38066406 7.43515625 -1.75585938 8.21875 C-2.14580078 9.0128125 -2.53574219 9.806875 -2.9375 10.625 C-3.32357422 11.42679687 -3.70964844 12.22859375 -4.10742188 13.0546875 C-5.06461573 15.03997846 -6.02903475 17.02141737 -7 19 C-7.33 19 -7.66 19 -8 19 C-8 17.35 -8 15.7 -8 14 C-7.34 14 -6.68 14 -6 14 C-6.33 13.01 -6.66 12.02 -7 11 C-6.02248365 9.65009646 -5.01800576 8.31963709 -4 7 C-3.649375 5.948125 -3.29875 4.89625 -2.9375 3.8125 C-2.628125 2.884375 -2.31875 1.95625 -2 1 C-1.34 0.67 -0.68 0.34 0 0 Z " fill="#C185AE" transform="translate(327,249)"/>
<path d="M0 0 C1.65 0 3.3 0 5 0 C5 0.99 5 1.98 5 3 C5.66 3 6.32 3 7 3 C9.12153042 4.85633912 10.41328692 6.61993038 12 9 C11.67 9.99 11.34 10.98 11 12 C9.16364422 10.19047409 7.33083792 8.37759362 5.5 6.5625 C4.97535156 6.04623047 4.45070313 5.52996094 3.91015625 4.99804688 C2.58775448 3.68423213 1.29164432 2.34406495 0 1 C0 0.67 0 0.34 0 0 Z " fill="#9B7AAC" transform="translate(118,181)"/>
<path d="M0 0 C2.31 0.33 4.62 0.66 7 1 C4.0356239 2.97625073 1.21212254 4.29886906 -2.0625 5.6875 C-3.12597656 6.14511719 -4.18945312 6.60273438 -5.28515625 7.07421875 C-6.18105469 7.37972656 -7.07695312 7.68523437 -8 8 C-8.66 7.67 -9.32 7.34 -10 7 C-9 5 -9 5 -6 3 C-5.13375 2.835 -4.2675 2.67 -3.375 2.5 C-2.59125 2.335 -1.8075 2.17 -1 2 C-0.67 1.34 -0.34 0.68 0 0 Z " fill="#D978A2" transform="translate(241,334)"/>
<path d="M0 0 C7.48291572 6.15034169 7.48291572 6.15034169 10 10 C8.35 10 6.7 10 5 10 C4.67 9.34 4.34 8.68 4 8 C3.01 7.67 2.02 7.34 1 7 C1 6.01 1 5.02 1 4 C0.34 3.67 -0.32 3.34 -1 3 C-0.67 2.01 -0.34 1.02 0 0 Z " fill="#BB79A3" transform="translate(142,255)"/>
<path d="M0 0 C3 1 3 1 5 4 C5 5.32 5 6.64 5 8 C4.01 8.66 3.02 9.32 2 10 C0.4375 8.9375 0.4375 8.9375 -1 7 C-0.6875 3.3125 -0.6875 3.3125 0 0 Z " fill="#6753A1" transform="translate(321,129)"/>
<path d="M0 0 C-3.94307315 3.40899696 -7.90470548 6.77340432 -12 10 C-12.66 9.67 -13.32 9.34 -14 9 C-5.30105417 -1.58371743 -5.30105417 -1.58371743 0 0 Z " fill="#A55A8F" transform="translate(180,246)"/>
<path d="M0 0 C3.67420866 0.30618405 4.78135513 0.75771784 7.3125 3.5625 C8.1478125 4.7690625 8.1478125 4.7690625 9 6 C7.02 7.98 5.04 9.96 3 12 C2.34 11.67 1.68 11.34 1 11 C2.32 9.35 3.64 7.7 5 6 C3.35 4.02 1.7 2.04 0 0 Z " fill="#9E8DBC" transform="translate(267,140)"/>
<path d="M0 0 C0.77988281 -0.00128906 1.55976563 -0.00257812 2.36328125 -0.00390625 C3.57951172 0.00189453 3.57951172 0.00189453 4.8203125 0.0078125 C5.62339844 0.00394531 6.42648438 0.00007813 7.25390625 -0.00390625 C11.28224536 0.00273022 15.01472354 0.13027362 18.9453125 1.1328125 C18.9453125 1.4628125 18.9453125 1.7928125 18.9453125 2.1328125 C12.6753125 2.1328125 6.4053125 2.1328125 -0.0546875 2.1328125 C-0.3846875 2.7928125 -0.7146875 3.4528125 -1.0546875 4.1328125 C-1.0546875 3.4728125 -1.0546875 2.8128125 -1.0546875 2.1328125 C-2.0446875 2.4628125 -3.0346875 2.7928125 -4.0546875 3.1328125 C-5.0446875 2.4728125 -6.0346875 1.8128125 -7.0546875 1.1328125 C-4.35268401 0.23214467 -2.77437323 0.00442887 0 0 Z " fill="#7581BA" transform="translate(193.0546875,35.8671875)"/>
<path d="M0 0 C0 3.57996647 -0.92545363 4.23393817 -3 7 C-3 7.99 -3 8.98 -3 10 C-4.98 10.99 -6.96 11.98 -9 13 C-7.68554313 7.01191871 -4.38808974 3.96570677 0 0 Z " fill="#BE85AA" transform="translate(171,248)"/>
<path d="M0 0 C4.92825764 0.6227428 8.80201641 1.1294941 12.0625 5.125 C12.701875 6.07375 13.34125 7.0225 14 8 C10.13375035 8 8.53339391 6.65502846 5.3125 4.5625 C4.31863281 3.92441406 3.32476562 3.28632813 2.30078125 2.62890625 C1.54152344 2.09136719 0.78226562 1.55382812 0 1 C0 0.67 0 0.34 0 0 Z " fill="#DC84AF" transform="translate(88,320)"/>
<path d="M0 0 C0.99 0.33 1.98 0.66 3 1 C4.04976964 4.14930893 4.10131595 6.38814456 4.0625 9.6875 C4.05347656 10.68136719 4.04445313 11.67523438 4.03515625 12.69921875 C4.02355469 13.45847656 4.01195312 14.21773437 4 15 C3.67 15 3.34 15 3 15 C1.094753 9.89665983 -0.42589023 5.53657294 0 0 Z " fill="#79619D" transform="translate(329,145)"/>
<path d="M0 0 C0.99 0.33 1.98 0.66 3 1 C2.34 1.66 1.68 2.32 1 3 C0.83312552 5.58354218 0.83312552 5.58354218 1 8 C-0.32 7.34 -1.64 6.68 -3 6 C-3.33 6.66 -3.66 7.32 -4 8 C-4.99 7.67 -5.98 7.34 -7 7 C-4.78071806 4.09197539 -3.07030857 2.04687238 0 0 Z " fill="#646CB7" transform="translate(91,63)"/>
<path d="M0 0 C0.95027599 2.85082796 1.29191216 5.21103374 1.5625 8.1875 C1.64628906 9.08855469 1.73007812 9.98960937 1.81640625 10.91796875 C1.87699219 11.60503906 1.93757813 12.29210937 2 13 C1.34 13 0.68 13 0 13 C-0.33 14.32 -0.66 15.64 -1 17 C-1.93213141 10.73960391 -2.20927172 5.97802937 0 0 Z " fill="#B27BAF" transform="translate(27,211)"/>
<path d="M0 0 C0.66 0.33 1.32 0.66 2 1 C0.74054645 2.67528263 -0.53293682 4.34002614 -1.8125 6 C-2.87404297 7.3921875 -2.87404297 7.3921875 -3.95703125 8.8125 C-4.63121094 9.534375 -5.30539063 10.25625 -6 11 C-6.99 11 -7.98 11 -9 11 C-7.59928507 5.70841026 -4.14512755 3.22521956 0 0 Z " fill="#8C5A91" transform="translate(219,202)"/>
<path d="M0 0 C-1 2 -1 2 -2.92578125 2.66796875 C-3.71339844 2.83941406 -4.50101563 3.01085938 -5.3125 3.1875 C-6.09238281 3.36667969 -6.87226562 3.54585937 -7.67578125 3.73046875 C-10.09204759 4.01067443 -11.70242952 3.74132137 -14 3 C-4.58997722 -1.77676538 -4.58997722 -1.77676538 0 0 Z " fill="#7E88B7" transform="translate(125,47)"/>
<path d="M0 0 C1.65 0 3.3 0 5 0 C4.67 0.99 4.34 1.98 4 3 C4.99 2.67 5.98 2.34 7 2 C7.33 2.99 7.66 3.98 8 5 C9.49985609 6.66710346 9.49985609 6.66710346 11 8 C6.19827866 6.89191046 3.08838665 5.95313492 0 2 C0 1.34 0 0.68 0 0 Z " fill="#D271A0" transform="translate(81,313)"/>
<path d="M0 0 C-0.33 0.99 -0.66 1.98 -1 3 C-1.99 2.67 -2.98 2.34 -4 2 C-4 2.66 -4 3.32 -4 4 C-4.99 4 -5.98 4 -7 4 C-7.33 2.35 -7.66 0.7 -8 -1 C-4.59745511 -2.2151946 -3.06748874 -1.86240388 0 0 Z " fill="#D45190" transform="translate(280,313)"/>
<path d="M0 0 C2.97 0.495 2.97 0.495 6 1 C5.04578192 2.14926266 4.08647955 3.29430541 3.125 4.4375 C2.59132812 5.07558594 2.05765625 5.71367187 1.5078125 6.37109375 C0 8 0 8 -2 9 C-1.41196203 5.97580475 -0.77321882 2.98241547 0 0 Z " fill="#9779AE" transform="translate(189,170)"/>
<path d="M0 0 C3.55420724 0.29618394 4.80337043 0.80337043 7.375 3.375 C8.179375 4.674375 8.179375 4.674375 9 6 C8.67 6.99 8.34 7.98 8 9 C6.66079162 7.88200014 5.32877444 6.75538103 4 5.625 C2.88625 4.68527344 2.88625 4.68527344 1.75 3.7265625 C1.1725 3.15679687 0.595 2.58703125 0 2 C0 1.34 0 0.68 0 0 Z " fill="#8C82B7" transform="translate(246,119)"/>
<path d="M0 0 C1.14926266 0.95421808 2.29430541 1.91352045 3.4375 2.875 C4.07558594 3.40867187 4.71367187 3.94234375 5.37109375 4.4921875 C7 6 7 6 8 8 C5.03 7.67 2.06 7.34 -1 7 C-0.34 5.68 0.32 4.36 1 3 C0.34 2.67 -0.32 2.34 -1 2 C-0.67 1.34 -0.34 0.68 0 0 Z " fill="#7D7FB6" transform="translate(284,73)"/>
<path d="M0 0 C0 0.66 0 1.32 0 2 C-3.94808458 5.11061209 -7.05500863 5.46650862 -12 5 C-12.66 4.34 -13.32 3.68 -14 3 C-12.9790625 3.0928125 -12.9790625 3.0928125 -11.9375 3.1875 C-7.58961797 2.90997562 -4.23189318 0 0 0 Z " fill="#5F6BA9" transform="translate(136,42)"/>
<path d="M0 0 C0.66 0.33 1.32 0.66 2 1 C0.68775452 4.93673644 -0.91910327 7.22719294 -4 10 C-4.25 6.6875 -4.25 6.6875 -4 3 C-2 1.0625 -2 1.0625 0 0 Z " fill="#C26AA2" transform="translate(312,275)"/>
<path d="M0 0 C0.66 0 1.32 0 2 0 C2.33 4.95 2.66 9.9 3 15 C2.01 15 1.02 15 0 15 C0 10.05 0 5.1 0 0 Z " fill="#744D93" transform="translate(333,161)"/>
<path d="M0 0 C0.99 0.33 1.98 0.66 3 1 C0.03 3.97 -2.94 6.94 -6 10 C-6.33 9.01 -6.66 8.02 -7 7 C-6.01 6.67 -5.02 6.34 -4 6 C-3.65657551 4.66923011 -3.32380126 3.33568021 -3 2 C-2.01 1.34 -1.02 0.68 0 0 Z " fill="#9182B2" transform="translate(227,137)"/>
<path d="M0 0 C2.6875 0.875 2.6875 0.875 5 2 C4.34 3.32 3.68 4.64 3 6 C2.38125 5.649375 1.7625 5.29875 1.125 4.9375 C0.073125 4.4734375 0.073125 4.4734375 -1 4 C-1.99 4.495 -1.99 4.495 -3 5 C-3 4.01 -3 3.02 -3 2 C-2.01 1.34 -1.02 0.68 0 0 Z " fill="#5460B1" transform="translate(259,59)"/>
<path d="M0 0 C1.14926266 0.95421808 2.29430541 1.91352045 3.4375 2.875 C4.07558594 3.40867188 4.71367187 3.94234375 5.37109375 4.4921875 C7 6 7 6 8 8 C6.35 7.67 4.7 7.34 3 7 C2.67 6.01 2.34 5.02 2 4 C1.01 3.67 0.02 3.34 -1 3 C-0.67 2.01 -0.34 1.02 0 0 Z " fill="#B97DA6" transform="translate(134,247)"/>
<path d="M0 0 C0.33 0.66 0.66 1.32 1 2 C2.32 1.34 3.64 0.68 5 0 C5.66 0.99 6.32 1.98 7 3 C6.34 3.66 5.68 4.32 5 5 C4.05125 4.835 3.1025 4.67 2.125 4.5 C-1.20621901 3.96700496 -2.24797917 4.20060177 -5 6 C-3.35 4.02 -1.7 2.04 0 0 Z " fill="#BE82B1" transform="translate(177,242)"/>
<path d="M0 0 C-2.31 2.31 -4.62 4.62 -7 7 C-7.66 6.34 -8.32 5.68 -9 5 C-8.00233891 2.50584728 -7.31383315 1.21259665 -5.0625 -0.3125 C-3 -1 -3 -1 0 0 Z " fill="#8C71AB" transform="translate(203,164)"/>
<path d="M0 0 C1.98 0.495 1.98 0.495 4 1 C4.33 2.65 4.66 4.3 5 6 C4.01 6.495 4.01 6.495 3 7 C3 6.34 3 5.68 3 5 C1.68 4.67 0.36 4.34 -1 4 C-0.67 2.68 -0.34 1.36 0 0 Z " fill="#8569AC" transform="translate(209,148)"/>
<path d="M0 0 C5.23880078 0.55145271 9.97350697 1.42922093 15 3 C15 3.33 15 3.66 15 4 C13.06166004 3.91284983 11.1242571 3.80467036 9.1875 3.6875 C8.10855469 3.62949219 7.02960938 3.57148437 5.91796875 3.51171875 C2.82502483 2.96931493 1.86977097 2.44710376 0 0 Z " fill="#939CC7" transform="translate(213,38)"/>
<path d="M0 0 C1.16959987 0.97566112 2.33561177 1.955625 3.5 2.9375 C4.1496875 3.48277344 4.799375 4.02804688 5.46875 4.58984375 C5.9740625 5.05519531 6.479375 5.52054688 7 6 C7 6.33 7 6.66 7 7 C4.69 6.67 2.38 6.34 0 6 C0 4.02 0 2.04 0 0 Z " fill="#AC7EAA" transform="translate(95,208)"/>
<path d="M0 0 C5.75 1.75 5.75 1.75 8 4 C6.329375 4.2165625 6.329375 4.2165625 4.625 4.4375 C1.17857953 4.78372035 1.17857953 4.78372035 -1 6 C-1.33 5.01 -1.66 4.02 -2 3 C-1.01 3 -0.02 3 1 3 C0.67 2.01 0.34 1.02 0 0 Z " fill="#737CB7" transform="translate(248,50)"/>
<path d="M0 0 C0.66 0 1.32 0 2 0 C1.45773019 3.79588866 -0.20127563 5.47211993 -3 8 C-3.99 7.67 -4.98 7.34 -6 7 C-5.67 6.34 -5.34 5.68 -5 5 C-4.01 5 -3.02 5 -2 5 C-2 4.01 -2 3.02 -2 2 C-1.34 2 -0.68 2 0 2 C0 1.34 0 0.68 0 0 Z " fill="#A28CBB" transform="translate(210,153)"/>
<path d="M0 0 C1.32 0.33 2.64 0.66 4 1 C4 1.66 4 2.32 4 3 C4.66 3.33 5.32 3.66 6 4 C6 5.65 6 7.3 6 9 C2.91910327 6.22719294 1.31224548 3.93673644 0 0 Z " fill="#CD89B1" transform="translate(47,276)"/>
<path d="M0 0 C0.33 1.32 0.66 2.64 1 4 C-1.4375 6.75 -1.4375 6.75 -4 9 C-4.33 8.34 -4.66 7.68 -5 7 C-3.35 4.69 -1.7 2.38 0 0 Z " fill="#9390BA" transform="translate(52,100)"/>
<path d="M0 0 C0.33 0.99 0.66 1.98 1 3 C-1.5654594 5.5654594 -3.47686668 5.54046087 -7 6 C-6 3 -6 3 -2.9375 1.3125 C-1.968125 0.879375 -0.99875 0.44625 0 0 Z " fill="#6669AD" transform="translate(78,75)"/>
<path d="M0 0 C2 4 2 4 1.125 6.75 C0.75375 7.4925 0.3825 8.235 0 9 C-0.99 9 -1.98 9 -3 9 C-2.01 6.03 -1.02 3.06 0 0 Z " fill="#9D95C0" transform="translate(37,125)"/>
<path d="M0 0 C0.763125 0.20625 1.52625 0.4125 2.3125 0.625 C2.3125 1.285 2.3125 1.945 2.3125 2.625 C-2.1425 3.12 -2.1425 3.12 -6.6875 3.625 C-5.07944847 0.40889695 -3.54044012 -0.4940149 0 0 Z " fill="#505EA5" transform="translate(246.6875,50.375)"/>
<path d="M0 0 C0.99 0.66 1.98 1.32 3 2 C-0.96 3.98 -0.96 3.98 -5 6 C-5 5.01 -5 4.02 -5 3 C-2.5 1.3125 -2.5 1.3125 0 0 Z " fill="#D776A3" transform="translate(259,326)"/>
<path d="M0 0 C0.66 0 1.32 0 2 0 C0.63016497 3.16115776 0.0109362 3.9927092 -3 6 C-5.1875 5.625 -5.1875 5.625 -7 5 C-3.375 2 -3.375 2 0 2 C0 1.34 0 0.68 0 0 Z " fill="#CC6C9A" transform="translate(276,315)"/>
<path d="M0 0 C0.99 0 1.98 0 3 0 C2.50168276 3.68754757 1.89932357 5.60490662 -1 8 C-0.67 5.36 -0.34 2.72 0 0 Z " fill="#9988B5" transform="translate(28,149)"/>
<path d="M0 0 C1.5 1.375 1.5 1.375 3 3 C3 3.66 3 4.32 3 5 C1.35 5.33 -0.3 5.66 -2 6 C-1.125 1.125 -1.125 1.125 0 0 Z " fill="#61579E" transform="translate(315,113)"/>
<path d="M0 0 C0.66 0.33 1.32 0.66 2 1 C2 1.99 2 2.98 2 4 C2.99 4.33 3.98 4.66 5 5 C5 6.32 5 7.64 5 9 C4.01 8.67 3.02 8.34 2 8 C1.87625 7.195625 1.7525 6.39125 1.625 5.5625 C1.315625 4.2940625 1.315625 4.2940625 1 3 C0.34 2.67 -0.32 2.34 -1 2 C-0.67 1.34 -0.34 0.68 0 0 Z " fill="#5D559F" transform="translate(309,104)"/>
<path d="M0 0 C-4.625 4 -4.625 4 -8 4 C-8 3.01 -8 2.02 -8 1 C-5.29120665 -0.35439668 -2.99066732 -0.06501451 0 0 Z " fill="#737AB1" transform="translate(111,53)"/>
<path d="M0 0 C0 3.57575896 -1.08840607 5.05295935 -3 8 C-4.32 7.67 -5.64 7.34 -7 7 C-5.42655961 3.85311922 -2.72148049 2.20034593 0 0 Z " fill="#D4A5C6" transform="translate(159,260)"/>
<path d="M0 0 C1.98 1.65 3.96 3.3 6 5 C4.02 5.99 4.02 5.99 2 7 C0 4 0 4 0 0 Z " fill="#B17EAC" transform="translate(110,223)"/>
<path d="M0 0 C1.67542976 0.28604898 3.34385343 0.61781233 5 1 C2.94766315 3.2477975 1.99332739 4.0022242 -1 5 C-1 1 -1 1 0 0 Z " fill="#775DA4" transform="translate(275,146)"/>
<path d="M0 0 C0.99 0.33 1.98 0.66 3 1 C1.75023244 4.65316671 1.32901247 5.78065836 -2 8 C-1.125 1.125 -1.125 1.125 0 0 Z " fill="#7E6FA6" transform="translate(35,133)"/>
<path d="M0 0 C0.99 0.99 1.98 1.98 3 3 C2.34 4.65 1.68 6.3 1 8 C0.34 7.67 -0.32 7.34 -1 7 C-0.67 4.69 -0.34 2.38 0 0 Z " fill="#5959A7" transform="translate(297,88)"/>
<path d="M0 0 C1.65 0 3.3 0 5 0 C5 1.32 5 2.64 5 4 C2.03 3.505 2.03 3.505 -1 3 C-0.67 2.01 -0.34 1.02 0 0 Z " fill="#DD5890" transform="translate(226,338)"/>
<path d="M0 0 C0.99 0 1.98 0 3 0 C3.33 1.98 3.66 3.96 4 6 C3.01 6 2.02 6 1 6 C0.67 4.02 0.34 2.04 0 0 Z " fill="#C36699" transform="translate(52,280)"/>
<path d="M0 0 C0.99 0.33 1.98 0.66 3 1 C3.625 3.375 3.625 3.375 4 6 C3.34 6.66 2.68 7.32 2 8 C0.74335022 5.09399739 0 3.20395416 0 0 Z " fill="#BA87B3" transform="translate(31,242)"/>
<path d="M0 0 C1.98 1.65 3.96 3.3 6 5 C4.68 5.33 3.36 5.66 2 6 C2 5.34 2 4.68 2 4 C1.01 3.67 0.02 3.34 -1 3 C-0.67 2.01 -0.34 1.02 0 0 Z " fill="#B380A8" transform="translate(120,233)"/>
<path d="M0 0 C1 3 1 3 0.0625 5.1875 C-0.4634375 6.0846875 -0.4634375 6.0846875 -1 7 C-1.66 7 -2.32 7 -3 7 C-3.33 7.66 -3.66 8.32 -4 9 C-3.46930939 5.17902761 -2.50298434 2.93828597 0 0 Z " fill="#866BAB" transform="translate(31,152)"/>
<path d="M0 0 C2.64752004 2.57784846 4.94432065 4.91648098 7 8 C6.01 8 5.02 8 4 8 C1.68294159 5.50470633 0.59646305 3.34019306 0 0 Z " fill="#8E91BC" transform="translate(296,85)"/>
<path d="M0 0 C1.32 0.33 2.64 0.66 4 1 C4.33 2.32 4.66 3.64 5 5 C3.35 5.33 1.7 5.66 0 6 C0 4.02 0 2.04 0 0 Z " fill="#5B60A4" transform="translate(280,72)"/>
<path d="M0 0 C4.75 0.75 4.75 0.75 7 3 C5.02 3.66 3.04 4.32 1 5 C0.67 3.35 0.34 1.7 0 0 Z " fill="#7C87B9" transform="translate(241,47)"/>
<path d="M0 0 C2.31 0.33 4.62 0.66 7 1 C4.33440687 2.77706209 1.9719385 3.87548273 -1 5 C-0.67 3.35 -0.34 1.7 0 0 Z " fill="#DF7FA9" transform="translate(241,334)"/>
<path d="M0 0 C0.66 0.66 1.32 1.32 2 2 C1.625 5.625 1.625 5.625 1 9 C-0.61949011 6.42786866 -1.04408751 5.32330841 -0.625 2.25 C-0.41875 1.5075 -0.2125 0.765 0 0 Z " fill="#BB87B3" transform="translate(28,227)"/>
<path d="M0 0 C1.9375 0.6875 1.9375 0.6875 4 2 C4.75 4.625 4.75 4.625 5 7 C1.18461538 4.53846154 1.18461538 4.53846154 0.25 1.8125 C0.1675 1.214375 0.085 0.61625 0 0 Z " fill="#9F75A6" transform="translate(143,204)"/>
<path d="M0 0 C1.65 0 3.3 0 5 0 C5.33 1.98 5.66 3.96 6 6 C3.97945196 4.35830472 1.97956942 2.69088222 0 1 C0 0.67 0 0.34 0 0 Z " fill="#A185B6" transform="translate(118,181)"/>
<path d="M0 0 C1 3 1 3 0.0625 5.1875 C-0.4634375 6.0846875 -0.4634375 6.0846875 -1 7 C-1.33 6.34 -1.66 5.68 -2 5 C-2.66 4.67 -3.32 4.34 -4 4 C-2.68 2.68 -1.36 1.36 0 0 Z " fill="#8788BC" transform="translate(71,78)"/>
<path d="M0 0 C2.475 0.99 2.475 0.99 5 2 C4.67 2.99 4.34 3.98 4 5 C3.34 4.67 2.68 4.34 2 4 C1.67 4.66 1.34 5.32 1 6 C0.67 4.02 0.34 2.04 0 0 Z " fill="#595FA4" transform="translate(273,66)"/>
<path d="M0 0 C0.99 0.33 1.98 0.66 3 1 C0.69 2.65 -1.62 4.3 -4 6 C-4.66 5.67 -5.32 5.34 -6 5 C-1.60546875 0.99609375 -1.60546875 0.99609375 0 0 Z " fill="#5C649E" transform="translate(91,63)"/>
</svg>
